# xmcd
#
# Track frame offsets: 
#        150
#        20240
#        36440
#        60890
#        76415
#        93290
#        113722
#        134915
#        150902
#        171740
#
# Disc length: 2511 seconds
#
# Revision: 0
# Processed by: cddbd v1.5.1PL0 Copyright (c) Steve Scherf et al.
# Submitted via: ExactAudioCopy v0.95a5
#
DISCID=8209cd0a
DTITLE=2 Days Short Of A Week - Grady Champion
DYEAR=2001
DGENRE=Blues
TTITLE0=Wine And Woman
TTITLE1=Brother, Brother
TTITLE2=Lady Luck
TTITLE3=Honeybee
TTITLE4=Children Of The Corn
TTITLE5=Policeman Blues
TTITLE6=When A Woman's Fed Up
TTITLE7=Love Is My Middle Name
TTITLE8=Nothing I Can Do
TTITLE9=Stop Chasing Me
EXTD=
EXTT0=
EXTT1=
EXTT2=
EXTT3=
EXTT4=
EXTT5=
EXTT6=
EXTT7=
EXTT8=
EXTT9=
PLAYORDER=
